<?xml version="1.0"?>
<svg width="654" height="654" xmlns="http://www.w3.org/2000/svg" xmlns:svg="http://www.w3.org/2000/svg">
  <metadata
     id="metadata18081">
    <rdf:RDF>
      <cc:Work
         rdf:about="">
        <dc:format>image/svg+xml</dc:format>
        <dc:type
           rdf:resource="http://purl.org/dc/dcmitype/StillImage" />
        <dc:rights>
          <cc:Agent>
            <dc:title>Public Domain</dc:title>
          </cc:Agent>
        </dc:rights>
        <dc:publisher>
          <cc:Agent>
            <dc:title>clker.com</dc:title>
          </cc:Agent>
        </dc:publisher>
        <dc:creator>
          <cc:Agent>
            <dc:title>Mohamed Ibrahim</dc:title>
          </cc:Agent>
        </dc:creator>
        <cc:license
           rdf:resource="http://creativecommons.org/licenses/publicdomain/" />
        <dc:title>map symbols</dc:title>
        <dc:subject>
          <rdf:Bag>
            <rdf:li>map symbols</rdf:li>
          </rdf:Bag>
        </dc:subject>
      </cc:Work>
      <cc:License
         rdf:about="http://creativecommons.org/licenses/publicdomain/">
        <cc:permits
           rdf:resource="http://creativecommons.org/ns#Reproduction" />
        <cc:permits
           rdf:resource="http://creativecommons.org/ns#Distribution" />
        <cc:permits
           rdf:resource="http://creativecommons.org/ns#DerivativeWorks" />
      </cc:License>
    </rdf:RDF>
  </metadata>

 <g>
  <path fill="#000000" fill-rule="nonzero" id="path6942" d="m78.103188,13.293198c-35.777706,0 -64.876118,29.098419 -64.876118,64.876129l0,497.448776c0,35.779053 29.098412,64.881104 64.876118,64.881104l497.451622,0c35.77771,0 64.87616,-29.102051 64.87616,-64.881104l0,-497.448776c0,-35.77771 -29.09845,-64.876129 -64.87616,-64.876129l-497.451622,0z"/>
  <path fill="#ff0000" fill-rule="nonzero" id="path6944" d="m575.55481,0l-497.451622,0c-43.118244,0 -78.103188,35.051056 -78.103188,78.169327l0,497.448776c0,43.117554 34.984943,78.106079 78.103188,78.106079l497.451622,0c43.118286,0 78.169373,-34.988525 78.169373,-78.106079l0,-497.448776c0,-43.118271 -35.051086,-78.169327 -78.169373,-78.169327m-97.678223,570.263367c-27.37915,0 -51.319122,-22.4823 -51.319122,-48.141479l0,-191.258911c0,-8.729156 -7.07605,-15.805908 -15.805939,-15.805908l-38.092072,0l-0.132965,253.883789l-201.440628,-3.306152l0,-434.625381c0,-22.683594 18.517761,-41.134506 41.267487,-41.134506l118.906387,0c22.683594,0 41.266754,18.450912 41.266754,41.134506l0,4.893951c0,26.651794 -0.132233,152.03981 -2.975586,152.238205l40.737762,0c23.278717,0 42.258636,18.913788 42.258636,42.258636l-0.264496,191.721771c0,12.628296 13.756073,22.4823 25.593781,22.4823c12.829651,0 29.09845,-10.579956 28.304932,-28.368896l-20.303101,-109.451965l-4.497192,-37.100159l3.240784,-108.12738l-9.060486,-0.066101c-20.170135,0 -36.505066,-16.334946 -36.505066,-36.372849l0.991852,-56.609833c0,0 -33.52948,-33.264984 -33.52948,-37.960541c0,0 12.962585,-12.82962 17.591309,-12.82962l67.52182,67.191223c10.58136,10.647461 15.739807,23.344849 15.739807,38.951691l0,145.82341c0,0 4.166565,31.611145 4.166565,31.87561c0,0 20.699158,114.144653 21.095886,120.56311c0,27.571045 -28.900024,48.141479 -54.757629,48.141479"/>
  <path fill="#000000" fill-rule="nonzero" id="path6946" d="m511.53833,401.558777c0,-0.264465 -4.166565,-31.87561 -4.166565,-31.87561l0,-145.82341c0,-15.606842 -5.158447,-28.30423 -15.739807,-38.951691l-67.52182,-67.191223c-4.628723,0 -17.591309,12.82962 -17.591309,12.82962c0,4.695557 33.52948,37.960541 33.52948,37.960541l-0.991852,56.609833c0,20.037903 16.33493,36.372849 36.505066,36.372849l9.060486,0.066101l-3.240784,108.12738l4.497192,37.100159l20.303101,109.451965c0.793518,17.78894 -15.475281,28.368896 -28.304932,28.368896c-11.837708,0 -25.593781,-9.854004 -25.593781,-22.4823l0.264496,-191.721771c0,-23.344849 -18.979919,-42.258636 -42.258636,-42.258636l-40.737762,0c2.843353,-0.198395 2.975586,-125.586411 2.975586,-152.238205l0,-4.893951c0,-22.683594 -18.58316,-41.134506 -41.266754,-41.134506l-118.906387,0c-22.749725,0 -41.267487,18.450912 -41.267487,41.134506l0,434.625381l201.440628,3.306152l0.132965,-253.883789l38.092072,0c8.729889,0 15.805939,7.076752 15.805939,15.805908l0,191.258911c0,25.65918 23.939972,48.141479 51.319122,48.141479c25.857605,0 54.757629,-20.570435 54.757629,-48.141479c-0.396729,-6.418457 -21.095886,-120.56311 -21.095886,-120.56311"/>
  <path fill="#ff0000" fill-rule="nonzero" id="path6948" d="m474.8927,204.673874c-2.380493,-0.661255 -12.36676,-2.844086 -12.36676,-2.844086l0,25.858307c0,7.142181 5.489075,14.879456 20.500793,18.186401c0,0 0.132263,-19.376648 0,-25.924408c-0.132263,-6.480927 -3.240112,-14.019867 -8.134033,-15.276215"/>
  <path fill="#ff0000" fill-rule="nonzero" id="path6950" d="m333.037506,119.766708l-118.906387,0c-6.415512,0 -11.374863,4.960052 -11.374863,11.242615l0,100.257813c0,6.348663 4.959351,11.242615 11.374863,11.242615l118.906387,0c6.348663,0 11.308716,-4.893951 11.308716,-11.242615l0,-100.257813c0,-6.282562 -4.960052,-11.242615 -11.308716,-11.242615"/>
 </g>
</svg>
