<svg id="Layer_1" data-name="Layer 1" xmlns="http://www.w3.org/2000/svg" viewBox="0 0 30 38" height="38px" width="30px"><defs><style>.cls-1{fill:#038fb2;}.cls-2{fill:#fff;}</style></defs><title>icons</title><path class="cls-1" d="M26.67,0H3.33A3.41,3.41,0,0,0,0,3.45V25.74a3.43,3.43,0,0,0,1.5,2.94L15,38l13.5-9.33A3.89,3.89,0,0,0,30,25.74V3.45A3.41,3.41,0,0,0,26.67,0Z"/><path class="cls-2" d="M24.35,7.5,23.19,5.24a1,1,0,0,0-1.71.87l.79,1.54a3.17,3.17,0,0,0-2.17,3V13a.72.72,0,0,0,.72.72h1.71v2.42a2,2,0,0,1-1.94,1.94H19.41V5.72a1.77,1.77,0,0,0-1.77-1.77H9.14A2.23,2.23,0,0,0,6.91,6.18V22.4a1.77,1.77,0,0,0-1.36,1.72v1.07a.72.72,0,0,0,.72.72H20a.72.72,0,0,0,.72-.72V24.12a1.77,1.77,0,0,0-1.36-1.72V20h1.17a3.87,3.87,0,0,0,3.87-3.87V7.94A1,1,0,0,0,24.35,7.5Zm-8,3.62H10a.6.6,0,0,1-.6-.6V7a.6.6,0,0,1,.6-.6h6.41A.6.6,0,0,1,17,7v3.5h0A.6.6,0,0,1,16.36,11.12Z"/></svg>
