<svg id="Layer_1" data-name="Layer 1" xmlns="http://www.w3.org/2000/svg" viewBox="0 0 30 38" height="38px" width="30px"><defs><style>.cls-1{fill:#611342;}.cls-2{fill:#a0226c;}.cls-3{fill:#fefefe;}</style></defs><title>icons</title><path class="cls-1" d="M26.58,0H3.42A3.42,3.42,0,0,0,0,3.42V26.58A3.42,3.42,0,0,0,3.42,30H7l8,8,8-8h3.62A3.42,3.42,0,0,0,30,26.58V3.42A3.42,3.42,0,0,0,26.58,0Z"/><path class="cls-2" d="M12.34,7.67a5.61,5.61,0,0,1,5.49,4.59,1.33,1.33,0,0,0,.83,1,15.66,15.66,0,0,0,5.15,1.88,5.43,5.43,0,0,1,1.29.41,3.2,3.2,0,0,1,1.15,5.09c-.15.16-.34.39-.53.41a9.23,9.23,0,0,0-2.95,1.25,2.06,2.06,0,0,1-2.41-.52,1.49,1.49,0,0,0-1.2-.47q-4.76-.05-9.51-.14a1.3,1.3,0,0,0-1,.42,2.41,2.41,0,0,1-4-.43.93.93,0,0,0-.56-.48A1.46,1.46,0,0,1,3,18.85,9.6,9.6,0,0,1,5,13.9a10.92,10.92,0,0,0,2.29-3.17A5.18,5.18,0,0,1,12.34,7.67ZM6.57,14.3c-1.75,1.22-2.08,3-2.34,4.73-.08.55.41.48.72.56s.66,0,.67.5a1,1,0,0,0,.9,1.1A1.28,1.28,0,0,0,8,20.43c.16-.31.31-.51.72-.5,3.85.07,7.7.11,11.55.16a.78.78,0,0,1,.72.36c.7,1,1.53,1,2.22.07a1,1,0,0,1,.95-.49c1.29,0,1.56-.29,1.62-1.57.05-1-.28-1.49-1.47-1.84-1.88-.56-3.89-.74-5.55-1.92-.64-.45-.85-.23-1.08.47a5.62,5.62,0,0,1-6.8,3.71A5.78,5.78,0,0,1,6.57,14.3ZM14.66,17a4.25,4.25,0,0,0,1.84-5,4.46,4.46,0,1,0-3.61,5.73c.49-.08.57-.31.55-.71s.08-.61-.44-.68c-1.83-.25-1.9-.39-1.93-2.28,0-1.21.37-2.54-.92-3.44-.26-.18-.19-.55.05-.77a.53.53,0,0,1,.79,0c1.76,1.9,4.41,3.31,3.63,6.6A1.93,1.93,0,0,0,14.66,17Zm-2.4-4.21c0,.78,0,1.27,0,1.75s.16.68.67.69c.66,0,.51-.42.52-.78C13.45,13.7,12.77,13.49,12.25,12.78Z"/><path class="cls-3" d="M6.57,14.3a5.78,5.78,0,0,0,4.27,4.58,5.62,5.62,0,0,0,6.8-3.71c.23-.7.45-.92,1.08-.47,1.66,1.18,3.67,1.37,5.55,1.92,1.19.35,1.52.82,1.47,1.84C25.68,19.74,25.4,20,24.12,20a1,1,0,0,0-.95.49c-.69,1-1.52.93-2.22-.07a.78.78,0,0,0-.72-.36c-3.85,0-7.7-.09-11.55-.16-.41,0-.56.19-.72.5a1.28,1.28,0,0,1-1.44.75,1,1,0,0,1-.9-1.1c0-.5-.37-.42-.67-.5s-.81,0-.72-.56C4.49,17.26,4.81,15.51,6.57,14.3Z"/><path class="cls-3" d="M14.66,17a1.93,1.93,0,0,1,0-.48c.78-3.29-1.87-4.7-3.63-6.6a.53.53,0,0,0-.79,0c-.24.22-.32.59-.05.77,1.29.9.9,2.23.92,3.44,0,1.89.09,2,1.93,2.28.52.07.42.37.44.68s-.05.63-.55.71A4.44,4.44,0,1,1,16.5,12,4.25,4.25,0,0,1,14.66,17Z"/><path class="cls-3" d="M12.25,12.78c.51.71,1.2.93,1.18,1.66,0,.36.14.8-.52.78-.51,0-.7-.19-.67-.69S12.25,13.56,12.25,12.78Z"/></svg>
