<svg id="Layer_1" data-name="Layer 1" xmlns="http://www.w3.org/2000/svg" viewBox="0 0 30 38" height="38px" width="30px"><defs><style>.cls-1{fill:#616161;}.cls-2{fill:#fff;}</style></defs><title>icons</title><path class="cls-1" d="M26.67,0H3.33A3.41,3.41,0,0,0,0,3.45V25.74a3.43,3.43,0,0,0,1.5,2.94L15,38l13.5-9.33A3.89,3.89,0,0,0,30,25.74V3.45A3.41,3.41,0,0,0,26.67,0Z"/><path class="cls-2" d="M25.6,10.22a1.19,1.19,0,0,0-1.68-.08l-2.46,2.24L18.93,9.61l2.46-2.25a1.19,1.19,0,1,0-1.61-1.76L17.22,7.94a2.38,2.38,0,0,0-2.74.32l-3.61,3.3c-.7.64-.48,4.34-.29,6.36-2.58,1.69-5.68,4-7.63,6.95h3a29.7,29.7,0,0,1,6.41-5.24c2.15.48,5.75,1.18,6.42.56l3.61-3.3a2.38,2.38,0,0,0,.6-2.64l2.58-2.35A1.19,1.19,0,0,0,25.6,10.22Z"/></svg>
