<svg id="Layer_1" data-name="Layer 1" xmlns="http://www.w3.org/2000/svg" viewBox="0 0 30 38" height="38px" width="30px"><defs><style>.cls-1{fill:#14add3;}.cls-2{fill:#fff;}</style></defs><title>icons</title><path class="cls-1" d="M14.9,0h.2A15,15,0,0,1,30,14.75C30,24.54,19.27,34.45,15,38l-.94-.8h0C9.32,33.1,0,23.87,0,14.75A15,15,0,0,1,14.9,0Z"/><path id="path7755" class="cls-2" d="M6,7.67a2.11,2.11,0,0,0-2,2V12.3a2.11,2.11,0,0,0,2,2h4.64V13H6a.66.66,0,0,1-.68-.68V9.64A.66.66,0,0,1,6,9h4.64V7.67Z"/><path id="path7759" class="cls-2" d="M6,15.42a1.91,1.91,0,0,0-2,2v.2H5.31v-.2A.66.66,0,0,1,6,16.72H8.68a.68.68,0,0,1,0,1.36H6a2.12,2.12,0,0,0-2,2V22h6.61v-1.3H5.31V20.1A.68.68,0,0,1,6,19.37H8.65a2.08,2.08,0,0,0,2-2,2,2,0,0,0-2-2Z"/><path id="path7763" class="cls-2" d="M16.33,7.67H13.67a2.11,2.11,0,0,0-2,2v4.64H13V12.51h4v1.77h1.3V9.64a2.11,2.11,0,0,0-2-2M17,11.21H13V9.64A.73.73,0,0,1,13.67,9h2.66a.71.71,0,0,1,.68.68Z"/><path id="path7767" class="cls-2" d="M13.67,15.42a2.1,2.1,0,0,0-2,2v2.69a2.1,2.1,0,0,0,2,2h4.64v-4h-4v1.28H17v1.38H13.67a.66.66,0,0,1-.7-.66V17.4a.66.66,0,0,1,.68-.68h4.65V15.42Z"/><path id="path7771" class="cls-2" d="M25.37,11A1.86,1.86,0,0,0,26,9.64a2.11,2.11,0,0,0-2-2H19.37v6.61h1.3V11.62H24a.66.66,0,0,1,.68.68v2H26v-2A1.69,1.69,0,0,0,25.37,11M24,10.33H20.67V9H24a.66.66,0,0,1,.68.68.69.69,0,0,1-.71.68"/><path id="path7775" class="cls-2" d="M24,15.42H21.35a2.11,2.11,0,0,0-2,2v2.66a2.11,2.11,0,0,0,2,2H24a2.11,2.11,0,0,0,2-2V17.4a2.11,2.11,0,0,0-2-2m.68,4.63a.66.66,0,0,1-.68.68H21.35a.66.66,0,0,1-.68-.68V17.4a.66.66,0,0,1,.68-.68H24a.66.66,0,0,1,.68.68Z"/></svg>
