<svg id="Layer_1" data-name="Layer 1" xmlns="http://www.w3.org/2000/svg" viewBox="0 0 30 38" height="38px" width="30px"><defs><style>.cls-1{fill:#611342;}.cls-2{fill:#a0226c;}.cls-3{fill:#fefefe;}</style></defs><title>icons</title><path class="cls-1" d="M26.58,0H3.42A3.42,3.42,0,0,0,0,3.42V26.58A3.42,3.42,0,0,0,3.42,30H7l8,8,8-8h3.62A3.42,3.42,0,0,0,30,26.58V3.42A3.42,3.42,0,0,0,26.58,0Z"/><path class="cls-2" d="M6,22.54C5,22,4.61,20.77,3.45,20.37c-.44-.15-.56-.69-.52-1.17A9.73,9.73,0,0,1,4.82,14c.79-1.06,1.86-1.84,2.38-3.22.88-2.35,3.28-3.39,6-3.06a5.55,5.55,0,0,1,4.61,4.39,1.5,1.5,0,0,0,.93,1.19,16,16,0,0,0,5.16,1.85,5.23,5.23,0,0,1,1.2.38,3.21,3.21,0,0,1,1.19,5.08,1.25,1.25,0,0,1-.88.56c-1.2,0-1.93.86-2.85,1.36H21.38c-.14-.33-.55-.2-.75-.51a2,2,0,0,0-1.85-.75c-3,0-6-.07-9-.11-.31,0-.69-.14-.91.16-.43.6-1.13.8-1.7,1.2Zm.54-8.25c-1.67,1-2,2.69-2.32,4.33-.14.64.11.9.71.95.32,0,.66,0,.66.5a1,1,0,0,0,.91,1.09,1.27,1.27,0,0,0,1.43-.77.7.7,0,0,1,.72-.49c3.82.06,7.64.11,11.46.16a.85.85,0,0,1,.82.37c.69,1,1.51,1,2.22.05a.91.91,0,0,1,1-.47c1.25.18,1.5-.32,1.61-1.59a1.61,1.61,0,0,0-1.39-1.81c-1.92-.54-4-.75-5.64-1.95-.67-.47-.85-.18-1.08.49a5.7,5.7,0,0,1-9.47,2.17A6.59,6.59,0,0,1,6.56,14.29Zm8.1-1.37a2.25,2.25,0,0,0-.77-3.74,4.46,4.46,0,1,0-.11,8.31,4.33,4.33,0,0,0,2.59-5.6A3.24,3.24,0,0,1,14.87,14c-.21.13-.25.36-.33.57-.55,1.36-1.74,1.73-3,1.89a.59.59,0,0,1-.73-.68c0-.63-.3-.68-.78-.64a6.2,6.2,0,0,1-.68,0c-.33,0-.59-.13-.58-.5s.29-.47.61-.47.58,0,.87,0,.54-.08.54-.48-.15-.52-.52-.5a8.44,8.44,0,0,1-1.07,0,.47.47,0,0,1,0-.94,5.27,5.27,0,0,1,.87,0c.46,0,.73-.07.7-.62s.4-.75.92-.71C13.06,11,14.22,11.43,14.66,12.93Zm-2.93.72h0c0,.45,0,.9,0,1.34s.13.41.4.36A1.65,1.65,0,0,0,13.65,14a1.54,1.54,0,0,0-.79-1.87c-.78-.4-1-.24-1.05.62C11.8,13.07,11.76,13.36,11.74,13.64Z"/><path class="cls-3" d="M6.56,14.29a6.59,6.59,0,0,0,1.6,3,5.7,5.7,0,0,0,9.47-2.17c.23-.67.41-1,1.08-.49,1.69,1.2,3.73,1.4,5.64,1.95a1.61,1.61,0,0,1,1.39,1.81c-.12,1.27-.36,1.77-1.61,1.59a.91.91,0,0,0-1,.47c-.71,1-1.53,1-2.22-.05a.85.85,0,0,0-.82-.37c-3.82,0-7.64-.09-11.46-.16a.7.7,0,0,0-.72.49,1.27,1.27,0,0,1-1.43.77,1,1,0,0,1-.91-1.09c0-.49-.34-.47-.66-.5-.6,0-.85-.31-.71-.95C4.61,17,4.89,15.32,6.56,14.29Z"/><path class="cls-3" d="M14.66,12.93c-.44-1.49-1.6-1.92-3-2-.51,0-.94.1-.92.71s-.24.66-.7.62a5.27,5.27,0,0,0-.87,0,.47.47,0,0,0,0,.94,8.44,8.44,0,0,0,1.07,0c.37,0,.52.11.52.5s-.19.5-.54.48-.58,0-.87,0-.6.11-.61.47.25.49.58.5a6.2,6.2,0,0,0,.68,0c.47,0,.82,0,.78.64a.59.59,0,0,0,.73.68c1.3-.16,2.49-.52,3-1.89.08-.21.12-.44.33-.57a3.24,3.24,0,0,0,1.5-2.13,4.33,4.33,0,0,1-2.59,5.6,4.45,4.45,0,1,1,.11-8.31A2.25,2.25,0,0,1,14.66,12.93Z"/><path class="cls-3" d="M11.74,13.64c0-.29.06-.57.07-.86,0-.86.27-1,1.05-.62A1.54,1.54,0,0,1,13.65,14a1.65,1.65,0,0,1-1.48,1.32c-.28.06-.42,0-.4-.36s0-.9,0-1.34Z"/></svg>
