<svg id="Layer_1" data-name="Layer 1" xmlns="http://www.w3.org/2000/svg" viewBox="0 0 30 38" height="38px" width="30px"><defs><style>.cls-1{fill:#611342;}.cls-2{fill:#4b994f;}.cls-3{fill:#fefefe;}</style></defs><title>icons</title><path class="cls-1" d="M26.58,0H3.42A3.42,3.42,0,0,0,0,3.42V26.58A3.42,3.42,0,0,0,3.42,30H7l8,8,8-8h3.62A3.42,3.42,0,0,0,30,26.58V3.42A3.42,3.42,0,0,0,26.58,0Z"/><path class="cls-2" d="M15,24.85a10,10,0,1,1,.1-20,10,10,0,0,1-.1,20Zm6.89-14.6c0,.42,0,.63,0,.83.14,2-.39,3.56-2.34,4.4a1.06,1.06,0,0,0-.61.88c-.48,2.32-3.23,3.58-5.6,3.48-.47,0-.76-.19-.67-.66.34-1.71-.73-1.69-1.9-1.6-.37,0-.75,0-1.13,0s-.78-.07-.76-.59.35-.62.77-.62c.75,0,1.5,0,2.26,0s.72-.48.74-1-.16-.85-.78-.82-1.42,0-2.13,0c-.46,0-.87-.07-.85-.65s.39-.58.8-.58a12.35,12.35,0,0,1,1.5,0c1.11.14,1.63-.21,1.47-1.42-.05-.39-.24-.93.44-1.13,1.92-.56,4.9.76,5.66,2.53.14.33.05.88.51.92s.79-.43,1-.81c1.08-1.66.08-5.27-1.68-6.14a8.14,8.14,0,0,0-5.37-.65,8.44,8.44,0,1,0,4.68,16.17C22.92,21,25.09,14.51,21.89,10.24Zm-8,5c0,.88,0,1.75,0,2.63,0,.46.13.67.65.66a3.46,3.46,0,0,0,3.35-3.46c0-1.89-1.11-3-3.09-3.13-.63,0-.94.1-.91.8S13.86,14.45,13.86,15.29Z"/><path class="cls-3" d="M21.89,10.24c3.19,4.26,1,10.77-4,12.55A8.44,8.44,0,1,1,13.26,6.62a8.14,8.14,0,0,1,5.37.65c1.76.87,2.76,4.48,1.68,6.14-.25.38-.54.85-1,.81s-.37-.59-.51-.92C18,11.54,15,10.22,13.12,10.78c-.68.2-.49.74-.44,1.13.16,1.2-.37,1.56-1.47,1.42a12.35,12.35,0,0,0-1.5,0c-.41,0-.78.08-.8.58s.39.66.85.65c.71,0,1.42,0,2.13,0s.81.25.78.82,0,1-.74,1-1.5,0-2.26,0c-.42,0-.75.14-.77.62s.34.6.76.59.75,0,1.13,0c1.17-.09,2.23-.1,1.9,1.6-.09.47.21.64.67.66,2.38.1,5.12-1.17,5.6-3.48a1.06,1.06,0,0,1,.61-.88c1.95-.83,2.48-2.44,2.34-4.4C21.88,10.87,21.89,10.66,21.89,10.24Z"/><path class="cls-3" d="M13.86,15.29c0-.83,0-1.67,0-2.5s.28-.83.91-.8c2,.11,3.13,1.24,3.09,3.13a3.46,3.46,0,0,1-3.35,3.46c-.51,0-.65-.2-.65-.66C13.87,17,13.86,16.16,13.86,15.29Z"/></svg>
