<svg id="Layer_1" data-name="Layer 1" xmlns="http://www.w3.org/2000/svg" viewBox="0 0 30 38" height="38px" width="30px"><defs><style>.cls-1{fill:#86b80e;}.cls-2{fill:#fff;}</style></defs><title>icons</title><path class="cls-1" d="M26.67,0H3.33A3.41,3.41,0,0,0,0,3.45V25.74a3.43,3.43,0,0,0,1.5,2.94L15,38l13.5-9.33A3.89,3.89,0,0,0,30,25.74V3.45A3.41,3.41,0,0,0,26.67,0Z"/><path class="cls-2" d="M25.52,12.23l0-.07-.84-1a2,2,0,0,0,1.44-1.63c0-.85-1-1.15-1.78-1.15s-1,.72-1,1.23L21.17,7.08a2.78,2.78,0,0,0-1.89-.95H10.88A2.78,2.78,0,0,0,9,7.08L6.84,9.62c0-.51-.11-1.23-1-1.23s-1.78.3-1.78,1.15a2,2,0,0,0,1.44,1.63l-.84,1,0,.07a6.36,6.36,0,0,0-1.48,3.93v2.7a3.85,3.85,0,0,0,.76,2.35v1.45A1.43,1.43,0,0,0,5.22,24.2H6.79a1.43,1.43,0,0,0,1.29-1.54v-.37h14v.37a1.43,1.43,0,0,0,1.29,1.54h1.56a1.43,1.43,0,0,0,1.29-1.54V21.21A3.85,3.85,0,0,0,27,18.86v-2.7A6.35,6.35,0,0,0,25.52,12.23Zm-15.73-4a2,2,0,0,1,1.1-.54h8.4a2,2,0,0,1,1.1.54l2.83,3.35H7ZM4.14,16.63A1.52,1.52,0,0,1,5.45,15c.73,0,3.1,1.71,3.1,2.63s-2.37.71-3.1.71A1.52,1.52,0,0,1,4.14,16.63ZM19,18.85H11.12c-.83,0-1.5-1.25-1.5-2.79H20.55C20.55,17.6,19.87,18.85,19,18.85Zm5.66-.55c-.73,0-3.1.21-3.1-.71S24,15,24.71,15A1.52,1.52,0,0,1,26,16.63,1.52,1.52,0,0,1,24.71,18.3Z"/></svg>
