<svg id="Layer_1" data-name="Layer 1" xmlns="http://www.w3.org/2000/svg" viewBox="0 0 30 38" height="38px" width="30px"><defs><style>.cls-1{fill:#b6460a;}.cls-2{fill:#fff;}</style></defs><title>icons</title><path class="cls-1" d="M26.67,0H3.33A3.41,3.41,0,0,0,0,3.45V25.74a3.43,3.43,0,0,0,1.5,2.94L15,38l13.5-9.33A3.89,3.89,0,0,0,30,25.74V3.45A3.41,3.41,0,0,0,26.67,0Z"/><path class="cls-2" d="M16.74,14.39a5.37,5.37,0,1,0-3.48,0A8,8,0,0,0,7,22.19V25a.87.87,0,0,0,.87.87H22.12A.87.87,0,0,0,23,25V22.19A8,8,0,0,0,16.74,14.39Z"/></svg>
